<svg xmlns="http://www.w3.org/2000/svg" viewBox="0 0 16 16"><style>.icon-canvas-transparent{opacity:0;fill:#f6f6f6}.icon-vs-out{fill:#f6f6f6}.icon-vs-bg{fill:#424242}</style><path class="icon-canvas-transparent" d="M16 16H0V0h16v16z" id="canvas"/><path class="icon-vs-out" d="M16 7.537l-3.6-3.522.236-.236-.709-.707a6.943 6.943 0 0 0-4.924-2.046c-3.86 0-7 3.14-7 7 0 3.859 3.14 7 7 7a6.934 6.934 0 0 0 4.951-2.078l.701-.707-.255-.255L16 8.465v-.928zm-8.998 4.488c-2.206 0-4-1.794-4-4s1.794-4 4-4c1.038 0 2.03.42 2.792 1.182l-.222.222 1.084 1.084h-2.63v2.975h2.629l-1.083 1.084.25.25-.005.005a3.935 3.935 0 0 1-2.815 1.198z" id="outline"/><path class="icon-vs-bg" d="M15.045 8.001l-3.352 3.279-.707-.707 2.084-2.084H9.026v-.976h4.044l-2.084-2.084.707-.707 3.352 3.279zM10.53 11.53c-.903.915-2.14 1.495-3.527 1.495a5 5 0 0 1-5-5 5 5 0 0 1 5-5c1.374 0 2.597.575 3.498 1.475l.72-.72a5.959 5.959 0 0 0-4.219-1.755 6 6 0 1 0 0 12 5.954 5.954 0 0 0 4.241-1.782l-.713-.713z" id="iconBg"/></svg>