<svg xmlns="http://www.w3.org/2000/svg" viewBox="0 0 16 16"><defs><style>.icon-canvas-transparent,.icon-vs-out{fill:#f6f6f6;}.icon-canvas-transparent{opacity:0;}.icon-vs-bg{fill:#424242;}.icon-vs-action-blue{fill:#00539c;}</style></defs><title>StepBack_16x</title><g id="canvas"><path class="icon-canvas-transparent" d="M16,0V16H0V0Z"/></g><g id="outline"><path class="icon-vs-out" d="M8,10a3,3,0,1,1-3,3A3,3,0,0,1,8,10ZM0,1V9H8V5.036a3.475,3.475,0,0,1,3.956,3.076l.1.888H16V8.293l-.028-.37A7.466,7.466,0,0,0,4,2.527V1Z"/></g><g id="iconBg"><path class="icon-vs-bg" d="M8,11a2,2,0,1,1-2,2A2,2,0,0,1,8,11Z"/></g><g id="colorAction"><path class="icon-vs-action-blue" d="M3,2V5.069A6.482,6.482,0,0,1,14.975,8H12.949A4.481,4.481,0,0,0,4.763,6H7V8H1V2Z"/></g></svg>