<svg xmlns="http://www.w3.org/2000/svg" viewBox="0 0 16 16"><defs><style>.icon-canvas-transparent,.icon-vs-out{fill:#f6f6f6;}.icon-canvas-transparent{opacity:0;}.icon-vs-bg{fill:#424242;}</style></defs><title>Wizard_16x</title><path class="icon-canvas-transparent" d="M16,0V16H0V0Z"/><path class="icon-vs-out" d="M15,8.776V10.25s-2.018.083-2.018,2.75H11.018A2.34,2.34,0,0,0,9,10.438V8.776c1.207,0,1.581-1.009,1.69-1.81A3.256,3.256,0,0,0,7.242,9h.205S7,11.4,9,11.4v1.276A2.171,2.171,0,0,0,7.447,15h-1.7A2,2,0,0,0,4,12.842V11.4a1.274,1.274,0,0,0,.982-.4H4.035C4.035,6,0,7,0,7V4.053A3.65,3.65,0,0,0,3.938,0h3.15S7.123,4.053,11,4.053V6h1.982S12.737,8.776,15,8.776Z"/><path class="icon-vs-bg" d="M1.221,5.481c3.853-.01,4.2-4.072,4.219-5.192.025,1.127.377,5.233,4.234,5.242-3.849,0-4.2,4.05-4.225,5.183C5.426,9.574,5.073,5.486,1.221,5.481ZM5.44,0s0,.111,0,.289C5.444.111,5.44,0,5.44,0Zm.009,11.013s0-.115,0-.3C5.445,10.9,5.449,11.013,5.449,11.013ZM1.209,5.481h0Zm8.471.05h0Zm2.28,1.048c-.013.662-.216,3.064-2.5,3.064h0c2.28,0,2.488,2.423,2.5,3.094.013-.667.218-3.063,2.5-3.063h0C12.182,9.674,11.974,7.245,11.96,6.579Zm0-.171s0,.065,0,.171C11.962,6.473,11.96,6.408,11.96,6.408Zm.007,6.5s0-.067,0-.175C11.965,12.845,11.967,12.912,11.967,12.912ZM6.73,9.86C6.723,10.306,6.591,12,5,12H5c1.59,0,1.725,1.694,1.733,2.143C6.742,13.694,6.873,12,8.464,12h0C6.873,12,6.738,10.306,6.73,9.86Zm0,4.394s0-.043,0-.111C6.734,14.211,6.735,14.254,6.735,14.254Zm0-4.5s0,.042,0,.11C6.731,9.792,6.73,9.75,6.73,9.75Z"/></svg>